<svg xmlns="http://www.w3.org/2000/svg" xmlns:xlink="http://www.w3.org/1999/xlink" xmlns:lucid="lucid" width="1870.4" height="1323.2"><g transform="translate(0 0)" lucid:page-tab-id="0_0"><path d="M0 0h1870.4v1323.2H0z" fill="#fff"/><path d="M295.2 160h1280v80h-1280z" fill="#fff"/><path d="M295.2 200h1280v40h-1280z" fill="#fff"/><path d="M295.2 200h1280m-1280 40h1280m-960-40v740m320-740v740m320-740v740M1575.2 160v780h-1280V160z" stroke="#000" stroke-width="2" fill="none"/><use xlink:href="#a" transform="matrix(1,0,0,1,295.19999999999993,160) translate(563.2 23.6)"/><use xlink:href="#b" transform="matrix(1,0,0,1,295.19999999999993,160) translate(654.0500000000001 23.6)"/><use xlink:href="#c" transform="matrix(1,0,0,1,615.1999999999999,200) translate(136.025 23.6)"/><use xlink:href="#d" transform="matrix(1,0,0,1,935.1999999999999,200) translate(78.125 23.6)"/><use xlink:href="#e" transform="matrix(1,0,0,1,935.1999999999999,200) translate(182.97500000000002 23.6)"/><use xlink:href="#f" transform="matrix(1,0,0,1,1255.1999999999998,200) translate(85.625 23.6)"/><use xlink:href="#e" transform="matrix(1,0,0,1,1255.1999999999998,200) translate(175.47500000000002 23.6)"/><use xlink:href="#g" transform="matrix(1,0,0,1,295.19999999999993,200) translate(140.55 23.6)"/><path d="M759.8 560h40v60h-40zM700 260h160v60H700z" stroke="#000" stroke-width="2" fill="#fff"/><use xlink:href="#h" transform="matrix(1,0,0,1,700,260) translate(53.529999999999994 33.15)"/><path d="M780 321v119h-.2v119" fill="none"/><path d="M780 321v9.93m0 9.92v19.85m0 9.93v19.84m0 9.93v19.85m0 9.92V440h-.2v9.83m0 9.92v19.85m0 9.93v19.85m0 9.92v19.85m0 9.93V559" stroke="#000" stroke-width="2" fill="none"/><path d="M781 321h-2v-1h2z"/><path d="M1020 260h160v60h-160z" stroke="#000" stroke-width="2" fill="#fff"/><use xlink:href="#i" transform="matrix(1,0,0,1,1020,260) translate(48.05499999999999 33.15)"/><path d="M1340 260h160v60h-160z" stroke="#000" stroke-width="2" fill="#fff"/><use xlink:href="#i" transform="matrix(1,0,0,1,1340,260) translate(48.05499999999999 33.15)"/><path d="M380 260h160v60H380z" stroke="#000" stroke-width="2" fill="#fff"/><use xlink:href="#j" transform="matrix(1,0,0,1,379.9999999999535,260) translate(58.055 33.15)"/><path d="M439.8 360h40v480h-40z" stroke="#000" stroke-width="2" fill="#fff"/><path d="M100 360c0 11.05-8.95 20-20 20s-20-8.95-20-20 8.95-20 20-20 20 8.95 20 20z" stroke="#000" stroke-width="2"/><path d="M101 360h320.56" stroke="#000" stroke-width="2" fill="none"/><path d="M101 361h-1.13l.13-1-.04-1H101z"/><path d="M436.56 360l-14.26 4.64v-9.28z" stroke="#000" stroke-width="2"/><use xlink:href="#k" transform="matrix(1,0,0,1,131.5630559900552,334.4) translate(0.0049999999999954525 14.4)"/><use xlink:href="#l" transform="matrix(1,0,0,1,131.5630559900552,334.4) translate(77.905 14.4)"/><path d="M460 321v38" fill="none"/><path d="M460 321v12.67m0 12.66V359" stroke="#000" stroke-width="2" fill="none"/><path d="M461 321h-2v-1h2z"/><path d="M1100 321v78" fill="none"/><path d="M1100 321v8.67m0 8.66v17.34m0 8.66v17.34m0 8.66V399" stroke="#000" stroke-width="2" fill="none"/><path d="M1101 321h-2v-1h2zM1101 400h-2v-1h2z"/><path d="M1079.8 400h40v80h-40z" stroke="#000" stroke-width="2" fill="#fff"/><path d="M1055.76 399H776.9v-.33H479.8" stroke="#000" stroke-width="2" fill="none"/><path d="M1070.76 399l-14.26 4.64v-9.28z" stroke="#000" stroke-width="2"/><path/><use xlink:href="#m" transform="matrix(1,0,0,1,788.5309480713397,373.40000000000003) translate(0 14.4)"/><use xlink:href="#n" transform="matrix(1,0,0,1,788.5309480713397,373.40000000000003) translate(163.9 14.4)"/><path d="M1078.8 479.27H498.04" stroke="#000" stroke-width="2" fill="none"/><path d="M1079.8 480h2v.27h-3v-2h1zM497.3 483.9l-14.26-4.63 14.26-4.64z"/><path d="M498.3 485.28l-18.5-6 18.5-6.02zm-12.03-6l10.03 3.25V476z"/><path d="M1100 481v59" fill="none"/><path d="M1100 481v9.83m0 9.84v19.66m0 9.84V540" stroke="#000" stroke-width="2" fill="none"/><path d="M1101 481h-2v-1h2z"/><path/><path d="M1080 540h40v40h-40z" fill="none"/><path d="M1084 544l32 32m0-32l-32 32" stroke="#000" stroke-width="8" fill="none"/><path d="M740.7 559H479.8" stroke="#000" stroke-width="2" fill="none"/><path d="M755.7 559l-14.28 4.64v-9.28z"/><path d="M758.93 559l-18.5 6v-12zm-16.5 3.26l10.02-3.26-10.03-3.26zM479.8 560v-2z"/><use xlink:href="#o" transform="matrix(1,0,0,1,643.883333333332,533.4) translate(0 14.4)"/><use xlink:href="#p" transform="matrix(1,0,0,1,643.883333333332,533.4) translate(50.95 14.4)"/><path d="M758.8 618.6h-139v1.9H499.04" stroke="#000" stroke-width="2" fill="none"/><path d="M759.8 619.6h-1v-2h1zM498.3 625.14l-14.26-4.63 14.26-4.63z"/><path d="M499.3 626.52l-18.5-6 18.5-6.02zm-12.03-6l10.03 3.25v-6.52z"/><path d="M1420 321v339" fill="none"/><path d="M1420 321v10.27m0 10.28v20.54m0 10.26v20.55m0 10.28v20.55m0 10.27v20.55m0 10.27v20.54m0 10.28v20.54m0 10.27V547m0 10.27v20.55m0 10.27v20.54m0 10.27v20.55m0 10.28V660" stroke="#000" stroke-width="2" fill="none"/><path d="M1421 321h-2v-1h2z"/><path d="M1400 640h40v80h-40z" stroke="#000" stroke-width="2" fill="#fff"/><path d="M1381.76 641.33H479.8" stroke="#000" stroke-width="2" fill="none"/><path d="M1396.76 641.33l-14.26 4.63v-9.27z"/><path d="M1400 641.33l-18.5 6v-12zm-16.5 3.26l10.03-3.27-10.03-3.26z"/><path/><use xlink:href="#m" transform="matrix(1,0,0,1,959.7139591379243,615.7283432938775) translate(0 14.4)"/><use xlink:href="#n" transform="matrix(1,0,0,1,959.7139591379243,615.7283432938775) translate(163.9 14.4)"/><path d="M779.8 621v19.5h.2V660" fill="none"/><path d="M779.8 621v13.07m.2 12.86V660" stroke="#000" stroke-width="2" fill="none"/><path d="M780.8 621h-2v-1h2z"/><path/><path d="M760 660h40v40h-40z" fill="none"/><path d="M764 664l32 32m0-32l-32 32" stroke="#000" stroke-width="8" fill="none"/><path d="M1399 721H498.04" stroke="#000" stroke-width="2" fill="none"/><path d="M1402 722h-3v-2h3zM497.3 725.64L483.04 721l14.26-4.64z"/><path d="M498.3 727l-18.5-6 18.5-6zm-12.03-6l10.03 3.26v-6.52z"/><path d="M1420 721v39" fill="none"/><path d="M1420 721v13m0 13v13" stroke="#000" stroke-width="2" fill="none"/><path d="M1421 721h-2v-1h2z"/><path/><path d="M1400 760h40v40h-40z" fill="none"/><path d="M1404 764l32 32m0-32l-32 32" stroke="#000" stroke-width="8" fill="none"/><path d="M438.8 838.96H118.2" stroke="#000" stroke-width="2" fill="none"/><path d="M439.8 839.96h-1v-2h1zM118.75 843.57l-14.52-3.76 13.96-5.48z"/><path d="M119.83 844.9L101 840l18.1-7.1zm-12.37-5.3l10.2 2.66-.38-6.5z"/><use xlink:href="#q" transform="matrix(1,0,0,1,137.2416666666662,813.3641963890634) translate(0 14.4)"/><use xlink:href="#r" transform="matrix(1,0,0,1,137.2416666666662,813.3641963890634) translate(57.900000000000006 14.4)"/><path d="M100 840c0 11.05-8.95 20-20 20s-20-8.95-20-20 8.95-20 20-20 20 8.95 20 20z" stroke="#000" stroke-width="2" fill="#fff"/><path d="M92 840c0 6.63-5.37 12-12 12s-12-5.37-12-12 5.37-12 12-12 12 5.37 12 12z" stroke="#000" stroke-width="2"/><path d="M459.8 841v19.5h.2V880" fill="none"/><path d="M459.8 841v13.07m.2 12.86V880" stroke="#000" stroke-width="2" fill="none"/><path d="M460.8 841h-2v-1h2z"/><path/><path d="M440 880h40v40h-40z" fill="none"/><path d="M444 884l32 32m0-32l-32 32" stroke="#000" stroke-width="8" fill="none"/><defs><path d="M185-189c-5-48-123-54-124 2 14 75 158 14 163 119 3 78-121 87-175 55-17-10-28-26-33-46l33-7c5 56 141 63 141-1 0-78-155-14-162-118-5-82 145-84 179-34 5 7 8 16 11 25" id="s"/><path d="M100-194c63 0 86 42 84 106H49c0 40 14 67 53 68 26 1 43-12 49-29l28 8c-11 28-37 45-77 45C44 4 14-33 15-96c1-61 26-98 85-98zm52 81c6-60-76-77-97-28-3 7-6 17-6 28h103" id="t"/><path d="M114-163C36-179 61-72 57 0H25l-1-190h30c1 12-1 29 2 39 6-27 23-49 58-41v29" id="u"/><path d="M108 0H70L1-190h34L89-25l56-165h34" id="v"/><path d="M197 0v-115H63V0H30v-248h33v105h134v-105h34V0h-34" id="w"/><path d="M84 4C-5 8 30-112 23-190h32v120c0 31 7 50 39 49 72-2 45-101 50-169h31l1 190h-30c-1-10 1-25-2-33-11 22-28 36-60 37" id="x"/><path d="M115-194c53 0 69 39 70 98 0 66-23 100-70 100C84 3 66-7 56-30L54 0H23l1-261h32v101c10-23 28-34 59-34zm-8 174c40 0 45-34 45-75 0-40-5-75-45-74-42 0-51 32-51 76 0 43 10 73 51 73" id="y"/><g id="a"><use transform="matrix(0.05,0,0,0.05,0,0)" xlink:href="#s"/><use transform="matrix(0.05,0,0,0.05,12,0)" xlink:href="#t"/><use transform="matrix(0.05,0,0,0.05,22,0)" xlink:href="#u"/><use transform="matrix(0.05,0,0,0.05,27.950000000000003,0)" xlink:href="#v"/><use transform="matrix(0.05,0,0,0.05,36.95,0)" xlink:href="#t"/><use transform="matrix(0.05,0,0,0.05,46.95,0)" xlink:href="#u"/><use transform="matrix(0.05,0,0,0.05,52.900000000000006,0)" xlink:href="#w"/><use transform="matrix(0.05,0,0,0.05,65.85000000000001,0)" xlink:href="#x"/><use transform="matrix(0.05,0,0,0.05,75.85000000000001,0)" xlink:href="#y"/></g><path d="M87 75C49 33 22-17 22-94c0-76 28-126 65-167h31c-38 41-64 92-64 168S80 34 118 75H87" id="z"/><path d="M30-248c87 1 191-15 191 75 0 78-77 80-158 76V0H30v-248zm33 125c57 0 124 11 124-50 0-59-68-47-124-48v98" id="A"/><path d="M141-36C126-15 110 5 73 4 37 3 15-17 15-53c-1-64 63-63 125-63 3-35-9-54-41-54-24 1-41 7-42 31l-33-3c5-37 33-52 76-52 45 0 72 20 72 64v82c-1 20 7 32 28 27v20c-31 9-61-2-59-35zM48-53c0 20 12 33 32 33 41-3 63-29 60-74-43 2-92-5-92 41" id="B"/><path d="M59-47c-2 24 18 29 38 22v24C64 9 27 4 27-40v-127H5v-23h24l9-43h21v43h35v23H59v120" id="C"/><path d="M24-231v-30h32v30H24zM24 0v-190h32V0H24" id="D"/><path d="M24 0v-261h32V0H24" id="E"/><path d="M33-261c38 41 65 92 65 168S71 34 33 75H2C39 34 66-17 66-93S39-220 2-261h31" id="F"/><g id="b"><use transform="matrix(0.05,0,0,0.05,0,0)" xlink:href="#z"/><use transform="matrix(0.05,0,0,0.05,5.95,0)" xlink:href="#A"/><use transform="matrix(0.05,0,0,0.05,17.95,0)" xlink:href="#B"/><use transform="matrix(0.05,0,0,0.05,27.950000000000003,0)" xlink:href="#u"/><use transform="matrix(0.05,0,0,0.05,33.9,0)" xlink:href="#C"/><use transform="matrix(0.05,0,0,0.05,38.9,0)" xlink:href="#D"/><use transform="matrix(0.05,0,0,0.05,42.85,0)" xlink:href="#B"/><use transform="matrix(0.05,0,0,0.05,52.85,0)" xlink:href="#E"/><use transform="matrix(0.05,0,0,0.05,56.800000000000004,0)" xlink:href="#F"/></g><path d="M233-177c-1 41-23 64-60 70L243 0h-38l-65-103H63V0H30v-248c88 3 205-21 203 71zM63-129c60-2 137 13 137-47 0-61-80-42-137-45v92" id="G"/><path d="M100-194c62-1 85 37 85 99 1 63-27 99-86 99S16-35 15-95c0-66 28-99 85-99zM99-20c44 1 53-31 53-75 0-43-8-75-51-75s-53 32-53 75 10 74 51 75" id="H"/><g id="c"><use transform="matrix(0.05,0,0,0.05,0,0)" xlink:href="#G"/><use transform="matrix(0.05,0,0,0.05,12.950000000000001,0)" xlink:href="#H"/><use transform="matrix(0.05,0,0,0.05,22.950000000000003,0)" xlink:href="#x"/><use transform="matrix(0.05,0,0,0.05,32.95,0)" xlink:href="#C"/><use transform="matrix(0.05,0,0,0.05,37.95,0)" xlink:href="#t"/></g><path d="M160-131c35 5 61 23 61 61C221 17 115-2 30 0v-248c76 3 177-17 177 60 0 33-19 50-47 57zm-97-11c50-1 110 9 110-42 0-47-63-36-110-37v79zm0 115c55-2 124 14 124-45 0-56-70-42-124-44v89" id="I"/><path d="M101-234c-31-9-42 10-38 44h38v23H63V0H32v-167H5v-23h27c-7-52 17-82 69-68v24" id="J"/><path d="M16-82v-28h88v28H16" id="K"/><g id="d"><use transform="matrix(0.05,0,0,0.05,0,0)" xlink:href="#I"/><use transform="matrix(0.05,0,0,0.05,12,0)" xlink:href="#t"/><use transform="matrix(0.05,0,0,0.05,22,0)" xlink:href="#J"/><use transform="matrix(0.05,0,0,0.05,27,0)" xlink:href="#H"/><use transform="matrix(0.05,0,0,0.05,37,0)" xlink:href="#u"/><use transform="matrix(0.05,0,0,0.05,42.95,0)" xlink:href="#t"/><use transform="matrix(0.05,0,0,0.05,52.95,0)" xlink:href="#K"/><use transform="matrix(0.05,0,0,0.05,58.900000000000006,0)" xlink:href="#u"/><use transform="matrix(0.05,0,0,0.05,64.85000000000001,0)" xlink:href="#H"/><use transform="matrix(0.05,0,0,0.05,74.85000000000001,0)" xlink:href="#x"/><use transform="matrix(0.05,0,0,0.05,84.85000000000001,0)" xlink:href="#C"/><use transform="matrix(0.05,0,0,0.05,89.85000000000001,0)" xlink:href="#t"/></g><path d="M177-190C167-65 218 103 67 71c-23-6-38-20-44-43l32-5c15 47 100 32 89-28v-30C133-14 115 1 83 1 29 1 15-40 15-95c0-56 16-97 71-98 29-1 48 16 59 35 1-10 0-23 2-32h30zM94-22c36 0 50-32 50-73 0-42-14-75-50-75-39 0-46 34-46 75s6 73 46 73" id="L"/><path d="M117-194c89-4 53 116 60 194h-32v-121c0-31-8-49-39-48C34-167 62-67 57 0H25l-1-190h30c1 10-1 24 2 32 11-22 29-35 61-36" id="M"/><path d="M135-143c-3-34-86-38-87 0 15 53 115 12 119 90S17 21 10-45l28-5c4 36 97 45 98 0-10-56-113-15-118-90-4-57 82-63 122-42 12 7 21 19 24 35" id="N"/><g id="e"><use transform="matrix(0.05,0,0,0.05,0,0)" xlink:href="#A"/><use transform="matrix(0.05,0,0,0.05,12,0)" xlink:href="#E"/><use transform="matrix(0.05,0,0,0.05,15.949999999999998,0)" xlink:href="#x"/><use transform="matrix(0.05,0,0,0.05,25.950000000000003,0)" xlink:href="#L"/><use transform="matrix(0.05,0,0,0.05,35.95,0)" xlink:href="#D"/><use transform="matrix(0.05,0,0,0.05,39.900000000000006,0)" xlink:href="#M"/><use transform="matrix(0.05,0,0,0.05,49.900000000000006,0)" xlink:href="#N"/></g><path d="M205 0l-28-72H64L36 0H1l101-248h38L239 0h-34zm-38-99l-47-123c-12 45-31 82-46 123h93" id="O"/><g id="f"><use transform="matrix(0.05,0,0,0.05,0,0)" xlink:href="#O"/><use transform="matrix(0.05,0,0,0.05,12,0)" xlink:href="#J"/><use transform="matrix(0.05,0,0,0.05,17,0)" xlink:href="#C"/><use transform="matrix(0.05,0,0,0.05,22,0)" xlink:href="#t"/><use transform="matrix(0.05,0,0,0.05,32,0)" xlink:href="#u"/><use transform="matrix(0.05,0,0,0.05,37.95,0)" xlink:href="#K"/><use transform="matrix(0.05,0,0,0.05,43.900000000000006,0)" xlink:href="#u"/><use transform="matrix(0.05,0,0,0.05,49.85000000000001,0)" xlink:href="#H"/><use transform="matrix(0.05,0,0,0.05,59.85,0)" xlink:href="#x"/><use transform="matrix(0.05,0,0,0.05,69.85000000000001,0)" xlink:href="#C"/><use transform="matrix(0.05,0,0,0.05,74.85000000000001,0)" xlink:href="#t"/></g><path d="M212-179c-10-28-35-45-73-45-59 0-87 40-87 99 0 60 29 101 89 101 43 0 62-24 78-52l27 14C228-24 195 4 139 4 59 4 22-46 18-125c-6-104 99-153 187-111 19 9 31 26 39 46" id="P"/><g id="g"><use transform="matrix(0.05,0,0,0.05,0,0)" xlink:href="#P"/><use transform="matrix(0.05,0,0,0.05,12.950000000000001,0)" xlink:href="#H"/><use transform="matrix(0.05,0,0,0.05,22.950000000000003,0)" xlink:href="#u"/><use transform="matrix(0.05,0,0,0.05,28.900000000000002,0)" xlink:href="#t"/></g><path d="M33-154v-36h34v36H33zM33 0v-36h34V0H33" id="Q"/><g id="h"><use transform="matrix(0.05,0,0,0.05,0,0)" xlink:href="#Q"/><use transform="matrix(0.05,0,0,0.05,5,0)" xlink:href="#G"/><use transform="matrix(0.05,0,0,0.05,17.950000000000003,0)" xlink:href="#H"/><use transform="matrix(0.05,0,0,0.05,27.950000000000003,0)" xlink:href="#x"/><use transform="matrix(0.05,0,0,0.05,37.95,0)" xlink:href="#C"/><use transform="matrix(0.05,0,0,0.05,42.95,0)" xlink:href="#t"/><path d="M-.9 1.25h54.75v1.32H-.9z"/></g><g id="i"><use transform="matrix(0.05,0,0,0.05,0,0)" xlink:href="#Q"/><use transform="matrix(0.05,0,0,0.05,5,0)" xlink:href="#A"/><use transform="matrix(0.05,0,0,0.05,17,0)" xlink:href="#E"/><use transform="matrix(0.05,0,0,0.05,20.95,0)" xlink:href="#x"/><use transform="matrix(0.05,0,0,0.05,30.950000000000003,0)" xlink:href="#L"/><use transform="matrix(0.05,0,0,0.05,40.95,0)" xlink:href="#D"/><use transform="matrix(0.05,0,0,0.05,44.900000000000006,0)" xlink:href="#M"/><use transform="matrix(0.05,0,0,0.05,54.900000000000006,0)" xlink:href="#N"/><path d="M-.9 1.25h65.7v1.32H-.9z"/></g><g id="j"><use transform="matrix(0.05,0,0,0.05,0,0)" xlink:href="#Q"/><use transform="matrix(0.05,0,0,0.05,5,0)" xlink:href="#P"/><use transform="matrix(0.05,0,0,0.05,17.950000000000003,0)" xlink:href="#H"/><use transform="matrix(0.05,0,0,0.05,27.950000000000003,0)" xlink:href="#u"/><use transform="matrix(0.05,0,0,0.05,33.900000000000006,0)" xlink:href="#t"/><path d="M-.9 1.25h45.7v1.32H-.9z"/></g><path d="M33 0v-248h34V0H33" id="R"/><path d="M96-169c-40 0-48 33-48 73s9 75 48 75c24 0 41-14 43-38l32 2c-6 37-31 61-74 61-59 0-76-41-82-99-10-93 101-131 147-64 4 7 5 14 7 22l-32 3c-4-21-16-35-41-35" id="S"/><path d="M210-169c-67 3-38 105-44 169h-31v-121c0-29-5-50-35-48C34-165 62-65 56 0H25l-1-190h30c1 10-1 24 2 32 10-44 99-50 107 0 11-21 27-35 58-36 85-2 47 119 55 194h-31v-121c0-29-5-49-35-48" id="T"/><g id="k"><use transform="matrix(0.05,0,0,0.05,0,0)" xlink:href="#R"/><use transform="matrix(0.05,0,0,0.05,5,0)" xlink:href="#M"/><use transform="matrix(0.05,0,0,0.05,15,0)" xlink:href="#S"/><use transform="matrix(0.05,0,0,0.05,24,0)" xlink:href="#H"/><use transform="matrix(0.05,0,0,0.05,34,0)" xlink:href="#T"/><use transform="matrix(0.05,0,0,0.05,48.95,0)" xlink:href="#D"/><use transform="matrix(0.05,0,0,0.05,52.900000000000006,0)" xlink:href="#M"/><use transform="matrix(0.05,0,0,0.05,62.900000000000006,0)" xlink:href="#L"/></g><path d="M240 0l2-218c-23 76-54 145-80 218h-23L58-218 59 0H30v-248h44l77 211c21-75 51-140 76-211h43V0h-30" id="U"/><g id="l"><use transform="matrix(0.05,0,0,0.05,0,0)" xlink:href="#U"/><use transform="matrix(0.05,0,0,0.05,14.950000000000001,0)" xlink:href="#t"/><use transform="matrix(0.05,0,0,0.05,24.950000000000003,0)" xlink:href="#N"/><use transform="matrix(0.05,0,0,0.05,33.95,0)" xlink:href="#N"/><use transform="matrix(0.05,0,0,0.05,42.95,0)" xlink:href="#B"/><use transform="matrix(0.05,0,0,0.05,52.95,0)" xlink:href="#L"/><use transform="matrix(0.05,0,0,0.05,62.95,0)" xlink:href="#t"/></g><path d="M0 4l72-265h28L28 4H0" id="V"/><path d="M115-194c55 1 70 41 70 98S169 2 115 4C84 4 66-9 55-30l1 105H24l-1-265h31l2 30c10-21 28-34 59-34zm-8 174c40 0 45-34 45-75s-6-73-45-74c-42 0-51 32-51 76 0 43 10 73 51 73" id="W"/><g id="m"><use transform="matrix(0.05,0,0,0.05,0,0)" xlink:href="#U"/><use transform="matrix(0.05,0,0,0.05,14.950000000000001,0)" xlink:href="#t"/><use transform="matrix(0.05,0,0,0.05,24.950000000000003,0)" xlink:href="#N"/><use transform="matrix(0.05,0,0,0.05,33.95,0)" xlink:href="#N"/><use transform="matrix(0.05,0,0,0.05,42.95,0)" xlink:href="#B"/><use transform="matrix(0.05,0,0,0.05,52.95,0)" xlink:href="#L"/><use transform="matrix(0.05,0,0,0.05,62.95,0)" xlink:href="#t"/><use transform="matrix(0.05,0,0,0.05,72.95,0)" xlink:href="#V"/><use transform="matrix(0.05,0,0,0.05,77.95,0)" xlink:href="#G"/><use transform="matrix(0.05,0,0,0.05,90.9,0)" xlink:href="#t"/><use transform="matrix(0.05,0,0,0.05,100.9,0)" xlink:href="#N"/><use transform="matrix(0.05,0,0,0.05,109.9,0)" xlink:href="#W"/><use transform="matrix(0.05,0,0,0.05,119.9,0)" xlink:href="#H"/><use transform="matrix(0.05,0,0,0.05,129.9,0)" xlink:href="#M"/><use transform="matrix(0.05,0,0,0.05,139.9,0)" xlink:href="#N"/><use transform="matrix(0.05,0,0,0.05,148.9,0)" xlink:href="#t"/></g><path d="M85-194c31 0 48 13 60 33l-1-100h32l1 261h-30c-2-10 0-23-3-31C134-8 116 4 85 4 32 4 16-35 15-94c0-66 23-100 70-100zm9 24c-40 0-46 34-46 75 0 40 6 74 45 74 42 0 51-32 51-76 0-42-9-74-50-73" id="X"/><g id="n"><use transform="matrix(0.05,0,0,0.05,0,0)" xlink:href="#I"/><use transform="matrix(0.05,0,0,0.05,12,0)" xlink:href="#x"/><use transform="matrix(0.05,0,0,0.05,22,0)" xlink:href="#M"/><use transform="matrix(0.05,0,0,0.05,32,0)" xlink:href="#X"/><use transform="matrix(0.05,0,0,0.05,42,0)" xlink:href="#E"/><use transform="matrix(0.05,0,0,0.05,45.95,0)" xlink:href="#t"/></g><g id="o"><use transform="matrix(0.05,0,0,0.05,0,0)" xlink:href="#I"/><use transform="matrix(0.05,0,0,0.05,12,0)" xlink:href="#t"/><use transform="matrix(0.05,0,0,0.05,22,0)" xlink:href="#L"/><use transform="matrix(0.05,0,0,0.05,32,0)" xlink:href="#D"/><use transform="matrix(0.05,0,0,0.05,35.95,0)" xlink:href="#M"/></g><g id="p"><use transform="matrix(0.05,0,0,0.05,0,0)" xlink:href="#G"/><use transform="matrix(0.05,0,0,0.05,12.950000000000001,0)" xlink:href="#H"/><use transform="matrix(0.05,0,0,0.05,22.950000000000003,0)" xlink:href="#x"/><use transform="matrix(0.05,0,0,0.05,32.95,0)" xlink:href="#C"/><use transform="matrix(0.05,0,0,0.05,37.95,0)" xlink:href="#t"/></g><g id="q"><use transform="matrix(0.05,0,0,0.05,0,0)" xlink:href="#s"/><use transform="matrix(0.05,0,0,0.05,12,0)" xlink:href="#t"/><use transform="matrix(0.05,0,0,0.05,22,0)" xlink:href="#u"/><use transform="matrix(0.05,0,0,0.05,27.950000000000003,0)" xlink:href="#v"/><use transform="matrix(0.05,0,0,0.05,36.95,0)" xlink:href="#t"/><use transform="matrix(0.05,0,0,0.05,46.95,0)" xlink:href="#u"/></g><g id="r"><use transform="matrix(0.05,0,0,0.05,0,0)" xlink:href="#G"/><use transform="matrix(0.05,0,0,0.05,12.950000000000001,0)" xlink:href="#t"/><use transform="matrix(0.05,0,0,0.05,22.950000000000003,0)" xlink:href="#N"/><use transform="matrix(0.05,0,0,0.05,31.950000000000003,0)" xlink:href="#W"/><use transform="matrix(0.05,0,0,0.05,41.95,0)" xlink:href="#H"/><use transform="matrix(0.05,0,0,0.05,51.95,0)" xlink:href="#M"/><use transform="matrix(0.05,0,0,0.05,61.95,0)" xlink:href="#N"/><use transform="matrix(0.05,0,0,0.05,70.95,0)" xlink:href="#t"/></g></defs></g></svg>